<svg width="77" height="77" viewBox="0 0 77 77" fill="none" xmlns="http://www.w3.org/2000/svg">
<path d="M0 6C0 2.68629 2.68629 0 6 0H70.4351C73.7488 0 76.4351 2.68629 76.4351 6V70.4351C76.4351 73.7488 73.7488 76.4351 70.4351 76.4351H6C2.68629 76.4351 0 73.7488 0 70.4351V6Z" fill="black"/>
<path fill-rule="evenodd" clip-rule="evenodd" d="M28.898 21.0451L52.3923 21.0445C52.4048 21.0451 53.8294 20.9581 54.6455 21.5169C55.1941 21.8925 55.7382 22.3861 56.0975 23.2109C56.2756 23.6196 56.3102 23.8812 56.4067 24.3232C56.5299 24.8882 56.5653 25.215 56.6187 25.7936C56.6793 26.449 56.6765 26.7094 56.6766 27.4796C56.6766 27.4796 59.5196 27.4995 60.4277 27.7122C61.6879 28.0075 62.3137 28.4312 63.2948 29.4725C64.2462 30.4825 64.694 31.4722 65.1701 32.9809C65.7799 34.9135 65.6679 36.2679 65.4633 38.3525C65.2999 40.0164 65.0397 40.9299 64.5372 42.4629C64.1171 43.7448 63.8395 44.4575 63.2206 45.5804C62.7797 46.3802 61.9675 47.484 61.9532 47.5033C61.9529 47.4839 61.9305 46.2598 61.8451 45.5683C61.7464 44.7694 61.5673 44.0304 61.0917 43.1514C60.6844 42.3987 60.3159 41.8263 59.663 41.5355C58.3307 40.9424 55.7939 41.069 53.3267 41.3346C50.9749 41.5878 47.3904 42.7763 47.3328 42.7954C46.5024 43.1764 45.8298 43.4482 45.1689 43.7337C44.8039 43.8913 44.4422 44.0536 44.0594 44.241L58.0275 65.6257L37.3641 65.5289L16.507 33.507V26.7706L39.1803 61.5789H51.0331L22.2166 17.5678V10.8093L25.3993 15.7113L28.898 21.0451ZM51.1327 24.7594H31.1541L42.0522 41.2106C42.3533 41.067 42.7086 40.8998 43.1401 40.7002C43.3354 40.6098 43.5469 40.5131 43.7753 40.4077C45.2332 39.735 47.5517 38.8912 47.5751 38.8827C47.5894 38.8785 50.0027 38.1596 51.572 37.8872C54.5182 37.3758 55.4825 37.2434 58.3492 37.3888C59.4829 37.4463 60.1793 37.6491 61.1257 38.3525C61.6402 38.735 62.5391 39.9516 62.5391 39.9516C62.5391 39.9516 62.8713 37.8973 62.9274 36.7614C62.9855 35.5806 62.9861 34.7914 62.5391 33.7762C62.1008 32.7807 61.702 32.4129 60.9332 31.9104C59.9707 31.2816 59.1348 31.0745 57.9858 31.0744H49.6361L47.5576 27.4796H53.7009C53.7009 27.1815 53.697 26.7726 53.6324 26.4084C53.5402 25.8894 53.3816 25.3268 52.9367 25.0239C52.4722 24.7077 51.1327 24.7594 51.1327 24.7594Z" fill="white"/>
<path d="M23.0121 61.5789H29.8618L32.0963 65.5289H21.1576L10.8096 49.7111L10.8133 42.7954L23.0121 61.5789Z" fill="white"/>
</svg>
