<svg width="16" height="16" viewBox="0 0 16 16" fill="none" xmlns="http://www.w3.org/2000/svg">
<path fill-rule="evenodd" clip-rule="evenodd" d="M5.2797 2.98764L12.1373 2.98747C12.141 2.98765 12.5568 2.96226 12.795 3.12535C12.9551 3.235 13.1139 3.37905 13.2188 3.61981C13.2708 3.73912 13.2809 3.81546 13.309 3.94447C13.345 4.10939 13.3553 4.20478 13.3709 4.37367C13.3886 4.56497 13.3878 4.64098 13.3878 4.86577C13.3878 4.86577 14.2177 4.87158 14.4827 4.93368C14.8505 5.01986 15.0332 5.14353 15.3196 5.44747C15.5973 5.74227 15.728 6.03116 15.8669 6.47152C16.0449 7.03562 16.0122 7.43094 15.9525 8.0394C15.9048 8.52507 15.8289 8.79169 15.6822 9.23916C15.5596 9.61331 15.4785 9.82133 15.2979 10.1491C15.1692 10.3825 14.9321 10.7047 14.928 10.7104C14.9279 10.7047 14.9213 10.3474 14.8964 10.1456C14.8676 9.91238 14.8153 9.69668 14.6765 9.44011C14.5576 9.22041 14.4501 9.05335 14.2595 8.96845C13.8706 8.79534 13.1302 8.8323 12.41 8.90981C11.7236 8.98372 10.6773 9.33063 10.6605 9.33621C10.4182 9.44741 10.2218 9.52674 10.0289 9.61008C9.92237 9.65609 9.81681 9.70345 9.70508 9.75814L13.7821 16L7.75083 15.9718L1.66299 6.62507V4.65884L8.28095 14.8188H11.7406L3.32952 1.97267V0L4.25849 1.43082L5.2797 2.98764ZM11.7697 4.07181H5.93824L9.11921 8.87363C9.20708 8.83172 9.3108 8.78292 9.43676 8.72464C9.49375 8.69827 9.55548 8.67004 9.62214 8.63928C10.0477 8.44293 10.7244 8.19664 10.7313 8.19415C10.7354 8.19291 11.4398 7.9831 11.8979 7.90358C12.7578 7.75432 13.0393 7.71566 13.876 7.75811C14.2069 7.7749 14.4102 7.8341 14.6864 8.0394C14.8366 8.15103 15.099 8.50616 15.099 8.50616C15.099 8.50616 15.1959 7.90653 15.2123 7.57498C15.2293 7.23034 15.2294 6.99997 15.099 6.70364C14.9711 6.41308 14.8546 6.30574 14.6303 6.15905C14.3493 5.9755 14.1053 5.91506 13.77 5.91505H11.3328L10.7261 4.86577H12.5193C12.5193 4.77875 12.5181 4.65942 12.4993 4.55312C12.4724 4.40163 12.4261 4.23741 12.2962 4.149C12.1606 4.05672 11.7697 4.07181 11.7697 4.07181Z" fill="white"/>
<path d="M3.56171 14.8188H5.56102L6.21323 15.9718H3.02043L0 11.3548L0.00109284 9.33621L3.56171 14.8188Z" fill="white"/>
</svg>
