<svg width="32" height="32" viewBox="0 0 32 32" fill="none" xmlns="http://www.w3.org/2000/svg">
<path fill-rule="evenodd" clip-rule="evenodd" d="M10.5594 5.97529L24.2746 5.97493C24.2819 5.97529 25.1136 5.92453 25.59 6.25071C25.9102 6.47 26.2278 6.75811 26.4376 7.23962C26.5415 7.47824 26.5618 7.63093 26.6181 7.88894C26.69 8.21878 26.7107 8.40956 26.7419 8.74735C26.7772 9.12993 26.7756 9.28195 26.7756 9.73154C26.7756 9.73154 28.4353 9.74316 28.9654 9.86737C29.7011 10.0397 30.0664 10.2871 30.6391 10.8949C31.1945 11.4845 31.456 12.0623 31.7339 12.943C32.0898 14.0712 32.0245 14.8619 31.905 16.0788C31.8097 17.0501 31.6577 17.5834 31.3644 18.4783C31.1192 19.2266 30.9571 19.6427 30.5958 20.2982C30.3384 20.7651 29.8643 21.4095 29.856 21.4208C29.8558 21.4094 29.8427 20.6948 29.7929 20.2911C29.7352 19.8248 29.6307 19.3934 29.353 18.8802C29.1153 18.4408 28.9002 18.1067 28.519 17.9369C27.7413 17.5907 26.2603 17.6646 24.8201 17.8196C23.4472 17.9674 21.3547 18.6613 21.3211 18.6724C20.8363 18.8948 20.4437 19.0535 20.0578 19.2202C19.8447 19.3122 19.6336 19.4069 19.4102 19.5163L27.5642 32L15.5017 31.9435L3.32597 13.2501V9.31768L16.5619 29.6376H23.4812L6.65903 3.94535V0L8.51699 2.86164L10.5594 5.97529ZM23.5393 8.14362H11.8765L18.2384 17.7473C18.4142 17.6634 18.6216 17.5658 18.8735 17.4493C18.9875 17.3965 19.111 17.3401 19.2443 17.2786C20.0954 16.8859 21.4488 16.3933 21.4625 16.3883C21.4708 16.3858 22.8797 15.9662 23.7957 15.8072C25.5156 15.5086 26.0786 15.4313 27.7521 15.5162C28.4139 15.5498 28.8204 15.6682 29.3729 16.0788C29.6732 16.3021 30.198 17.0123 30.198 17.0123C30.198 17.0123 30.3919 15.8131 30.4247 15.15C30.4586 14.4607 30.4589 13.9999 30.198 13.4073C29.9421 12.8262 29.7093 12.6115 29.2605 12.3181C28.6987 11.951 28.2106 11.8301 27.5399 11.8301H22.6656L21.4523 9.73154H25.0385C25.0385 9.5575 25.0363 9.31885 24.9985 9.10624C24.9447 8.80326 24.8521 8.47481 24.5924 8.29799C24.3213 8.11343 23.5393 8.14362 23.5393 8.14362Z" fill="white"/>
<path d="M7.12343 29.6376H11.122L12.4265 31.9435H6.04085L0 22.7096L0.00218568 18.6724L7.12343 29.6376Z" fill="white"/>
</svg>
