<svg width="64" height="64" viewBox="0 0 64 64" fill="none" xmlns="http://www.w3.org/2000/svg">
<path fill-rule="evenodd" clip-rule="evenodd" d="M21.1188 11.9506L48.5493 11.9499C48.5639 11.9506 50.2272 11.8491 51.1799 12.5014C51.8205 12.94 52.4557 13.5162 52.8752 14.4792C53.0831 14.9565 53.1236 15.2619 53.2361 15.7779C53.3801 16.4376 53.4214 16.8191 53.4838 17.4947C53.5544 18.2599 53.5512 18.5639 53.5512 19.4631C53.5512 19.4631 56.8706 19.4863 57.9309 19.7347C59.4021 20.0795 60.1328 20.5741 61.2782 21.7899C62.3891 22.9691 62.9119 24.1246 63.4677 25.8861C64.1797 28.1425 64.049 29.7238 63.81 32.1576C63.6193 34.1003 63.3155 35.1668 62.7288 36.9567C62.2383 38.4532 61.9142 39.2853 61.1916 40.5964C60.6769 41.5302 59.7286 42.8189 59.7119 42.8415C59.7115 42.8188 59.6854 41.3897 59.5857 40.5823C59.4705 39.6495 59.2613 38.7867 58.7061 37.7605C58.2305 36.8817 57.8004 36.2134 57.038 35.8738C55.4825 35.1814 52.5207 35.3292 49.6402 35.6393C46.8944 35.9349 42.7094 37.3225 42.6422 37.3448C41.6726 37.7896 40.8873 38.107 40.1156 38.4403C39.6895 38.6244 39.2673 38.8138 38.8203 39.0326L55.1285 64L31.0033 63.887L6.65194 26.5003V18.6354L33.1238 59.2752H46.9623L13.3181 7.89069V0L17.034 5.72327L21.1188 11.9506ZM47.0786 16.2872H23.753L36.4768 35.4945C36.8283 35.3269 37.2432 35.1317 37.747 34.8985C37.975 34.7931 38.2219 34.6802 38.4885 34.5571C40.1908 33.7717 42.8976 32.7866 42.925 32.7766C42.9416 32.7716 45.7593 31.9324 47.5915 31.6143C51.0312 31.0173 52.1572 30.8627 55.5041 31.0324C56.8278 31.0996 57.6408 31.3364 58.7457 32.1576C59.3465 32.6041 60.3959 34.0246 60.3959 34.0246C60.3959 34.0246 60.7838 31.6261 60.8493 30.2999C60.9171 28.9214 60.9178 27.9999 60.3959 26.8145C59.8842 25.6523 59.4186 25.2229 58.521 24.6362C57.3973 23.902 56.4213 23.6602 55.0799 23.6602H45.3313L42.9045 19.4631H50.077C50.077 19.115 50.0725 18.6377 49.9971 18.2125C49.8895 17.6065 49.7043 16.9496 49.1848 16.596C48.6425 16.2269 47.0786 16.2872 47.0786 16.2872Z" fill="white"/>
<path d="M14.2469 59.2752H22.2441L24.8529 63.887H12.0817L0 45.4191L0.00437137 37.3448L14.2469 59.2752Z" fill="white"/>
</svg>
