<svg xmlns="http://www.w3.org/2000/svg" viewBox="0 0 772 447" role="img">
  <defs>
    <linearGradient id="metal-silver" x1="0%" y1="0%" x2="100%" y2="100%">
      <stop offset="0%" stop-color="#ffffff"/>
      <stop offset="22%" stop-color="#e2e8f0"/>
      <stop offset="50%" stop-color="#94a3b8"/>
      <stop offset="78%" stop-color="#cbd5e1"/>
      <stop offset="100%" stop-color="#f1f5f9"/>
    </linearGradient>
    <filter id="insignia-shadow" x="-20%" y="-20%" width="140%" height="140%">
      <feDropShadow dx="0" dy="2" stdDeviation="1.5" flood-color="#000" flood-opacity="0.45"/>
      <feDropShadow dx="0" dy="0.5" stdDeviation="0.25" flood-color="#fff" flood-opacity="0.35"/>
    </filter>
  </defs>
  <g transform="translate(0,447) scale(0.1,-0.1)" filter="url(#insignia-shadow)">
    <path fill="url(#metal-silver)" d="M7238 3949 c-773 -343 -1456 -727 -2065 -1161 -148 -106 -142 -92
-76 -173 69 -86 152 -211 188 -286 l28 -57 91 66 c508 367 1329 823 1960 1087
37 16 70 34 72 40 2 5 3 137 2 291 l-3 281 -197 -88z"/>
    <path fill="url(#metal-silver)" d="M282 3744 l3 -285 155 -68 c655 -286 1359 -681 1877 -1052 44 -33 84
-59 87 -59 3 0 19 26 35 57 37 74 136 223 194 292 25 30 44 58 41 62 -33 55
-769 527 -1159 744 -345 193 -1177 595 -1229 595 -3 0 -5 -128 -4 -286z"/>
    <path fill="url(#metal-silver)" d="M7245 3024 c-571 -254 -1145 -576 -1640 -922 -205 -143 -188 -120
-169 -222 19 -108 29 -343 17 -437 -5 -40 -8 -73 -6 -73 2 0 57 40 121 88 511
385 1113 736 1717 1002 77 34 143 65 148 69 4 4 6 136 5 293 l-3 286 -190 -84z"/>
    <path fill="url(#metal-silver)" d="M282 2815 l3 -286 185 -83 c583 -261 1172 -605 1655 -966 l140 -105
0 210 c0 189 6 255 31 361 13 51 -652 479 -1187 765 -235 125 -720 356 -807
383 l-22 7 2 -286z"/>
    <path fill="url(#metal-silver)" d="M3858 3014 c-3 -5 -79 -221 -169 -480 l-163 -472 -366 -6 c-201 -4
-429 -10 -506 -14 l-141 -7 389 -295 c214 -162 395 -302 402 -310 10 -12 -13
-99 -134 -497 -81 -265 -142 -479 -136 -476 6 4 195 134 419 290 l408 284 407
-284 c224 -156 412 -286 418 -290 7 -4 -3 44 -22 106 -18 61 -85 281 -147 487
l-113 375 215 164 c119 90 300 227 403 305 l188 141 -173 7 c-94 5 -323 11
-507 15 l-335 8 -166 479 c-91 263 -168 475 -171 470z m113 -1040 c280 -82
371 -442 164 -649 -207 -207 -567 -116 -649 164 -87 296 189 572 485 485z"/>
  </g>
</svg>
