<svg xmlns="http://www.w3.org/2000/svg" viewBox="0 0 611 1024" role="img">
  <defs>
    <linearGradient id="metal-silver" x1="0%" y1="0%" x2="100%" y2="100%">
      <stop offset="0%" stop-color="#ffffff"/>
      <stop offset="22%" stop-color="#e2e8f0"/>
      <stop offset="50%" stop-color="#94a3b8"/>
      <stop offset="78%" stop-color="#cbd5e1"/>
      <stop offset="100%" stop-color="#f1f5f9"/>
    </linearGradient>
    <filter id="insignia-shadow" x="-20%" y="-20%" width="140%" height="140%">
      <feDropShadow dx="0" dy="2" stdDeviation="1.5" flood-color="#000" flood-opacity="0.45"/>
      <feDropShadow dx="0" dy="0.5" stdDeviation="0.25" flood-color="#fff" flood-opacity="0.35"/>
    </filter>
  </defs>
  <g transform="translate(0,1024) scale(0.1,-0.1)" filter="url(#insignia-shadow)">
    <path fill="url(#metal-silver)" d="M2988 9795 c-546 -827 -1536 -1623 -2618 -2105 -69 -30 -131 -59
-137 -63 -13 -8 -20 -457 -8 -457 30 0 527 239 740 356 849 465 1662 1144
2038 1701 23 34 45 61 49 60 3 -1 40 -47 81 -102 498 -666 1323 -1318 2256
-1784 182 -92 482 -231 496 -231 3 0 4 102 3 226 l-3 226 -191 87 c-1068 488
-2016 1253 -2557 2063 l-82 123 -67 -100z"/>
    <path fill="url(#metal-silver)" d="M2974 8817 c-544 -687 -1535 -1394 -2621 -1872 l-133 -58 0 -229 c0
-125 1 -228 3 -228 10 0 346 154 504 230 945 458 1813 1084 2283 1648 l45 54
18 -24 c360 -449 1073 -1005 1837 -1430 207 -115 714 -367 844 -418 12 -5 47
-20 79 -34 l57 -26 0 228 0 227 -102 44 c-1099 470 -2202 1268 -2713 1963
l-20 28 -81 -103z"/>
    <path fill="url(#metal-silver)" d="M2890 7820 c-583 -585 -1554 -1195 -2622 -1649 l-48 -20 0 -226 c0
-129 4 -225 9 -225 30 0 543 235 831 381 772 389 1484 858 1881 1237 59 56
110 102 114 102 4 0 50 -40 101 -90 532 -508 1491 -1091 2592 -1576 l142 -63
0 228 0 228 -187 83 c-1020 450 -1919 1025 -2478 1585 l-170 170 -165 -165z"/>
    <path fill="url(#metal-silver)" d="M222 5183 l3 -226 190 -84 c636 -279 1304 -656 1798 -1015 l108 -78
42 29 c63 43 181 100 279 136 l88 31 -136 105 c-572 439 -1332 873 -2188 1250
-98 44 -180 79 -182 79 -3 0 -3 -102 -2 -227z"/>
    <path fill="url(#metal-silver)" d="M5670 5321 c-947 -426 -1653 -840 -2273 -1332 -19 -16 -17 -17 49
-37 80 -25 209 -86 289 -137 l56 -35 141 101 c511 367 1263 783 1878 1039 86
36 80 17 80 266 0 173 -3 224 -12 223 -7 0 -101 -40 -208 -88z"/>
    <path fill="url(#metal-silver)" d="M220 4447 l0 -224 63 -28 c608 -270 1138 -566 1571 -879 l50 -35 39
72 c36 67 93 150 152 223 l26 32 -78 57 c-223 164 -607 405 -908 570 -237 129
-797 399 -893 429 l-22 7 0 -224z"/>
    <path fill="url(#metal-silver)" d="M5660 4576 c-406 -183 -849 -420 -1182 -632 -162 -102 -460 -308
-477 -327 -6 -8 12 -40 59 -102 38 -49 86 -122 107 -162 l39 -72 129 91 c401
278 943 580 1415 786 l135 59 3 227 c2 177 0 226 -10 226 -7 -1 -105 -43 -218
-94z"/>
    <path fill="url(#metal-silver)" d="M220 3711 l0 -227 133 -58 c421 -184 936 -484 1315 -765 67 -50 124
-91 125 -91 1 0 1 62 -1 138 -3 93 1 168 12 232 l16 95 -27 20 c-356 268 -992
631 -1465 837 l-108 47 0 -228z"/>
    <path fill="url(#metal-silver)" d="M5685 3851 c-472 -217 -873 -444 -1248 -707 -163 -114 -149 -93 -131
-204 11 -67 15 -136 11 -237 l-4 -142 81 63 c364 282 853 569 1344 790 l152
69 0 229 c0 125 -3 228 -7 227 -5 0 -93 -39 -198 -88z"/>
    <path fill="url(#metal-silver)" d="M2925 3497 c-70 -204 -131 -375 -134 -379 -3 -4 -186 -10 -405 -14
l-400 -7 31 -26 c17 -14 160 -123 317 -241 157 -118 285 -222 285 -231 1 -12
-203 -701 -224 -757 -3 -8 16 2 42 21 123 89 613 427 618 427 4 0 153 -101
330 -225 178 -124 325 -225 327 -225 3 0 -46 169 -109 376 -63 207 -112 382
-109 389 2 7 142 116 310 244 168 128 306 236 306 240 0 4 -176 11 -392 15
-216 4 -394 8 -395 10 -2 2 -62 171 -133 376 -72 206 -132 375 -133 377 -2 1
-61 -165 -132 -370z m258 -469 c191 -82 238 -348 88 -499 -123 -123 -308 -123
-432 0 -242 242 27 633 344 499z"/>
    <path fill="url(#metal-silver)" d="M230 2963 l0 -228 93 -47 c459 -234 869 -529 1420 -1022 364 -325
480 -413 664 -506 367 -183 878 -199 1255 -40 199 84 347 196 738 556 490 451
883 737 1367 994 l122 65 1 228 c0 125 -4 227 -9 227 -30 0 -449 -204 -621
-303 -383 -220 -606 -395 -1030 -812 -354 -349 -465 -436 -646 -513 -258 -109
-665 -122 -944 -31 -206 68 -342 166 -686 497 -358 344 -478 448 -720 620
-208 148 -637 387 -874 487 -36 15 -80 34 -97 42 l-33 13 0 -227z"/>
    <path fill="url(#metal-silver)" d="M222 2233 l3 -226 110 -60 c278 -149 502 -316 1007 -750 544 -466
771 -630 1064 -765 377 -173 775 -197 1156 -71 328 109 589 289 1224 844 480
420 693 580 998 745 l101 55 3 228 c1 125 0 227 -3 227 -11 0 -235 -115 -335
-173 -338 -194 -631 -417 -1034 -786 -426 -391 -569 -502 -781 -609 -228 -114
-377 -147 -665 -147 -502 0 -768 129 -1361 661 -263 237 -307 275 -434 379
-311 256 -611 453 -933 614 l-122 61 2 -227z"/>
  </g>
</svg>
