<svg xmlns="http://www.w3.org/2000/svg" viewBox="0 0 752 1024" role="img">
  <defs>
    <linearGradient id="metal-silver" x1="0%" y1="0%" x2="100%" y2="100%">
      <stop offset="0%" stop-color="#ffffff"/>
      <stop offset="22%" stop-color="#e2e8f0"/>
      <stop offset="50%" stop-color="#94a3b8"/>
      <stop offset="78%" stop-color="#cbd5e1"/>
      <stop offset="100%" stop-color="#f1f5f9"/>
    </linearGradient>
    <filter id="insignia-shadow" x="-20%" y="-20%" width="140%" height="140%">
      <feDropShadow dx="0" dy="2" stdDeviation="1.5" flood-color="#000" flood-opacity="0.45"/>
      <feDropShadow dx="0" dy="0.5" stdDeviation="0.25" flood-color="#fff" flood-opacity="0.35"/>
    </filter>
  </defs>
  <g transform="translate(0,1024) scale(0.1,-0.1)" filter="url(#insignia-shadow)">
    <path fill="url(#metal-silver)" d="M3605 9663 c-689 -712 -1900 -1484 -3205 -2044 -67 -29 -124 -57
-126 -63 -2 -6 -3 -134 -2 -283 l3 -272 190 83 c1325 577 2536 1316 3188 1945
l107 104 93 -89 c515 -498 1413 -1091 2387 -1579 282 -141 853 -405 988 -456
l22 -9 -2 282 -3 281 -80 34 c-1434 623 -2563 1349 -3319 2133 -48 50 -88 89
-89 89 -1 -1 -69 -71 -152 -156z"/>
    <path fill="url(#metal-silver)" d="M7140 6614 c-1091 -466 -2174 -1086 -2893 -1657 l-89 -70 88 -29
c111 -36 251 -102 343 -162 40 -25 73 -46 76 -46 2 0 70 48 152 107 625 452
1529 954 2310 1283 54 23 104 47 111 54 9 9 12 76 10 288 l-3 276 -105 -44z"/>
    <path fill="url(#metal-silver)" d="M270 6374 l0 -275 53 -24 c28 -13 131 -58 227 -100 716 -314 1600
-813 2145 -1210 66 -48 130 -94 141 -102 20 -13 28 -10 94 33 93 60 233 126
344 162 l88 29 -128 99 c-736 571 -1701 1122 -2813 1606 -74 32 -138 58 -143
58 -4 0 -8 -124 -8 -276z"/>
    <path fill="url(#metal-silver)" d="M272 5470 l3 -280 185 -82 c618 -273 1356 -690 1818 -1027 l67 -49
46 88 c53 100 90 156 158 238 26 31 50 62 54 69 13 21 -407 310 -757 522 -448
272 -1057 582 -1544 788 l-32 13 2 -280z"/>
    <path fill="url(#metal-silver)" d="M7155 5713 c-683 -301 -1270 -615 -1795 -960 -189 -124 -436 -298
-445 -314 -4 -5 16 -35 43 -67 62 -71 139 -187 181 -269 17 -35 35 -63 40 -63
4 0 44 26 87 57 477 343 1159 727 1779 1002 l200 88 3 282 c1 154 -1 281 -5
280 -5 0 -44 -17 -88 -36z"/>
    <path fill="url(#metal-silver)" d="M270 4562 l0 -278 113 -48 c602 -258 1233 -631 1823 -1077 7 -6 7 15
1 69 -11 101 -2 316 18 421 9 46 15 84 13 86 -168 134 -661 450 -988 632 -241
135 -939 473 -975 473 -3 0 -5 -125 -5 -278z"/>
    <path fill="url(#metal-silver)" d="M7075 4772 c-577 -255 -1174 -594 -1673 -947 -121 -86 -124 -88 -117
-119 31 -150 42 -345 26 -481 -5 -38 -7 -71 -6 -72 1 -2 62 43 136 98 462 349
1080 708 1657 964 l152 67 0 279 c0 217 -3 279 -12 279 -7 -1 -80 -31 -163
-68z"/>
    <path fill="url(#metal-silver)" d="M3595 4291 l-159 -460 -71 -5 c-38 -3 -262 -9 -497 -13 l-427 -8 394
-299 c217 -165 395 -301 395 -304 0 -3 -63 -214 -141 -469 -77 -256 -139 -467
-137 -469 2 -2 185 123 406 277 l402 280 403 -280 c221 -154 403 -276 405
-272 1 4 -61 216 -138 471 -138 455 -140 465 -121 480 11 8 189 143 396 300
l375 285 -427 8 c-236 4 -459 10 -498 13 l-70 5 -159 460 c-87 252 -162 459
-165 459 -3 0 -78 -207 -166 -459z m243 -541 c270 -63 390 -378 227 -599 -169
-229 -525 -194 -650 64 -42 86 -43 232 -4 316 78 165 259 257 427 219z"/>
    <path fill="url(#metal-silver)" d="M7140 3884 c-268 -116 -621 -299 -850 -443 -393 -245 -617 -430
-1085 -891 -430 -423 -564 -530 -786 -625 -355 -153 -889 -156 -1258 -8 -227
91 -385 213 -791 609 -506 493 -816 736 -1280 1003 -217 125 -762 391 -801
391 -5 0 -9 -118 -9 -277 l0 -278 130 -68 c359 -187 771 -452 1104 -712 213
-165 277 -220 795 -683 596 -533 992 -692 1623 -652 497 32 792 179 1318 660
569 520 752 673 1100 917 216 152 533 344 798 483 l102 54 0 283 c0 156 -1
283 -2 283 -2 -1 -50 -21 -108 -46z"/>
    <path fill="url(#metal-silver)" d="M7175 2995 c-498 -227 -1016 -597 -1639 -1169 -685 -629 -950 -797
-1397 -888 -169 -34 -559 -34 -728 0 -441 89 -708 256 -1388 865 -530 475
-868 732 -1274 969 -165 97 -450 248 -467 248 -9 0 -12 -72 -12 -274 l0 -274
122 -66 c339 -182 667 -422 1152 -841 557 -481 732 -621 990 -793 735 -491
1418 -559 2121 -212 336 166 584 350 1205 895 632 554 946 787 1298 964 46 23
85 47 88 54 2 7 3 134 2 283 l-3 271 -70 -32z"/>
  </g>
</svg>
