<svg xmlns="http://www.w3.org/2000/svg" viewBox="0 0 676 1024" role="img">
  <defs>
    <linearGradient id="metal-silver" x1="0%" y1="0%" x2="100%" y2="100%">
      <stop offset="0%" stop-color="#ffffff"/>
      <stop offset="22%" stop-color="#e2e8f0"/>
      <stop offset="50%" stop-color="#94a3b8"/>
      <stop offset="78%" stop-color="#cbd5e1"/>
      <stop offset="100%" stop-color="#f1f5f9"/>
    </linearGradient>
    <filter id="insignia-shadow" x="-20%" y="-20%" width="140%" height="140%">
      <feDropShadow dx="0" dy="2" stdDeviation="1.5" flood-color="#000" flood-opacity="0.45"/>
      <feDropShadow dx="0" dy="0.5" stdDeviation="0.25" flood-color="#fff" flood-opacity="0.35"/>
    </filter>
  </defs>
  <g transform="translate(0,1024) scale(0.1,-0.1)" filter="url(#insignia-shadow)">
    <path fill="url(#metal-silver)" d="M3287 9746 c-583 -742 -1672 -1523 -2859 -2050 l-178 -79 0 -253 0
-253 72 31 c1202 510 2376 1302 2978 2008 40 47 75 85 79 85 4 0 37 -36 75
-80 544 -634 1521 -1326 2586 -1830 204 -97 448 -205 461 -205 5 0 9 111 9
248 l0 248 -102 44 c-1005 433 -1934 1044 -2598 1710 -154 154 -325 348 -395
447 -17 24 -32 42 -35 42 -3 0 -45 -51 -93 -113z"/>
    <path fill="url(#metal-silver)" d="M3195 8645 c-501 -505 -1250 -1018 -2145 -1469 -234 -118 -617 -297
-752 -352 l-48 -19 0 -252 c0 -139 2 -253 5 -253 13 0 424 184 638 285 973
463 1894 1053 2384 1529 l103 99 97 -94 c461 -446 1285 -986 2198 -1438 290
-144 807 -381 831 -381 2 0 3 113 2 251 l-3 251 -234 104 c-1176 522 -2194
1189 -2824 1852 -38 40 -70 71 -70 70 -1 -1 -83 -83 -182 -183z"/>
    <path fill="url(#metal-silver)" d="M252 5730 l3 -251 230 -103 c782 -350 1472 -744 2041 -1167 l40 -30
87 54 c90 57 219 115 315 143 l55 16 -24 20 c-690 552 -1675 1115 -2737 1565
-10 4 -12 -46 -10 -247z"/>
    <path fill="url(#metal-silver)" d="M6223 5861 c-927 -418 -1736 -885 -2328 -1345 -71 -56 -136 -106
-144 -112 -12 -9 -3 -15 44 -29 90 -26 242 -96 323 -148 42 -27 78 -44 85 -40
7 4 59 41 117 83 535 388 1316 826 2007 1126 l182 79 1 253 c0 195 -3 252 -12
251 -7 0 -131 -54 -275 -118z"/>
    <path fill="url(#metal-silver)" d="M6316 5085 c-665 -298 -1337 -679 -1816 -1031 l-90 -66 44 -51 c54
-65 135 -185 170 -254 14 -29 28 -53 30 -53 3 0 58 37 123 83 456 320 1021
635 1591 887 l142 63 0 253 c0 140 -1 254 -2 254 -2 -1 -88 -39 -192 -85z"/>
    <path fill="url(#metal-silver)" d="M250 4912 l0 -249 103 -43 c495 -210 1138 -564 1592 -879 131 -91
162 -108 170 -96 6 8 30 51 54 95 24 44 75 118 112 165 l68 84 -132 94 c-259
185 -602 400 -912 572 -265 147 -1006 505 -1046 505 -5 0 -9 -106 -9 -248z"/>
    <path fill="url(#metal-silver)" d="M252 4100 l3 -252 150 -67 c519 -233 1044 -539 1457 -852 65 -49 119
-89 121 -89 2 0 2 66 -1 148 -3 108 0 175 12 254 10 60 15 112 11 117 -16 26
-395 280 -620 415 -319 193 -825 451 -1123 573 -10 4 -12 -46 -10 -247z"/>
    <path fill="url(#metal-silver)" d="M6395 4308 c-500 -222 -1061 -536 -1486 -832 l-166 -116 16 -67 c10
-48 15 -125 15 -260 1 -106 2 -193 3 -193 2 0 57 40 122 89 435 324 980 641
1463 852 l148 64 0 253 c0 195 -3 252 -12 251 -7 -1 -53 -19 -103 -41z"/>
    <path fill="url(#metal-silver)" d="M3235 3864 c-77 -223 -142 -409 -145 -414 -3 -5 -203 -13 -444 -19
-241 -5 -439 -11 -441 -13 -2 -2 154 -122 346 -267 192 -145 349 -270 349
-276 0 -7 -56 -198 -125 -426 -69 -227 -124 -414 -122 -415 1 -1 163 110 360
247 197 137 363 249 368 249 5 0 170 -112 367 -249 196 -137 358 -248 360
-246 2 1 -53 190 -122 418 -70 228 -126 419 -126 424 0 5 157 128 350 273
l349 265 -87 6 c-48 4 -163 7 -257 8 -93 1 -254 4 -356 8 l-185 6 -144 414
c-79 227 -146 413 -149 413 -3 0 -69 -183 -146 -406z m291 -519 c207 -101 259
-369 104 -538 -218 -239 -605 -76 -588 248 13 244 267 396 484 290z"/>
    <path fill="url(#metal-silver)" d="M252 3278 l3 -252 115 -61 c559 -298 964 -590 1550 -1115 444 -399
592 -507 837 -611 330 -141 831 -159 1183 -43 248 83 445 216 799 540 548 501
714 636 1096 889 194 129 434 272 602 358 l83 42 0 253 c0 138 -2 252 -6 252
-33 0 -442 -197 -652 -314 -451 -252 -700 -448 -1217 -956 -374 -367 -514
-474 -724 -551 -351 -128 -845 -107 -1156 48 -177 89 -283 174 -603 486 -391
380 -584 542 -882 742 -256 172 -638 380 -900 490 -36 15 -80 34 -98 42 l-32
13 2 -252z"/>
    <path fill="url(#metal-silver)" d="M250 2468 l0 -253 97 -50 c286 -147 599 -376 1067 -780 499 -431 704
-592 933 -737 724 -455 1407 -451 2111 11 222 146 366 261 779 623 578 506
835 700 1151 868 l121 65 1 252 0 253 -27 -11 c-75 -28 -363 -188 -541 -301
-305 -193 -555 -391 -956 -758 -470 -430 -621 -547 -856 -665 -449 -225 -1001
-229 -1457 -9 -224 107 -397 238 -844 635 -609 542 -920 767 -1421 1028 l-158
83 0 -254z"/>
  </g>
</svg>
