<svg xmlns="http://www.w3.org/2000/svg" viewBox="0 0 772 540" role="img">
  <defs>
    <linearGradient id="metal-silver" x1="0%" y1="0%" x2="100%" y2="100%">
      <stop offset="0%" stop-color="#ffffff"/>
      <stop offset="22%" stop-color="#e2e8f0"/>
      <stop offset="50%" stop-color="#94a3b8"/>
      <stop offset="78%" stop-color="#cbd5e1"/>
      <stop offset="100%" stop-color="#f1f5f9"/>
    </linearGradient>
    <filter id="insignia-shadow" x="-20%" y="-20%" width="140%" height="140%">
      <feDropShadow dx="0" dy="2" stdDeviation="1.5" flood-color="#000" flood-opacity="0.45"/>
      <feDropShadow dx="0" dy="0.5" stdDeviation="0.25" flood-color="#fff" flood-opacity="0.35"/>
    </filter>
  </defs>
  <g transform="translate(0,540) scale(0.1,-0.1)" filter="url(#insignia-shadow)">
    <path fill="url(#metal-silver)" d="M7220 4874 c-838 -367 -1583 -767 -2225 -1195 -301 -200 -731 -519
-715 -531 3 -1 43 -16 90 -31 110 -37 250 -103 339 -161 40 -25 75 -46 80 -46
4 0 61 39 127 86 645 467 1450 920 2294 1291 118 52 218 98 223 102 4 4 6 136
5 293 l-3 286 -215 -94z"/>
    <path fill="url(#metal-silver)" d="M282 4674 l3 -285 145 -63 c847 -366 1744 -867 2365 -1321 149 -109
130 -104 214 -50 95 61 235 127 343 162 48 15 86 33 84 38 -4 15 -297 238
-490 373 -486 340 -1015 650 -1646 965 -371 186 -983 467 -1015 467 -3 0 -4
-129 -3 -286z"/>
    <path fill="url(#metal-silver)" d="M7240 3951 c-800 -358 -1458 -729 -2067 -1163 -148 -106 -142 -92
-76 -173 69 -86 152 -211 188 -286 l28 -57 91 66 c144 104 414 279 631 410
423 253 822 456 1348 686 l57 25 0 290 c0 160 -1 291 -2 290 -2 0 -91 -40
-198 -88z"/>
    <path fill="url(#metal-silver)" d="M282 3744 l3 -285 155 -68 c657 -287 1372 -688 1877 -1052 44 -33 84
-59 87 -59 3 0 19 26 35 57 37 74 136 223 194 292 25 30 44 58 42 62 -26 41
-647 449 -962 632 -414 240 -1357 707 -1428 707 -3 0 -4 -128 -3 -286z"/>
    <path fill="url(#metal-silver)" d="M7245 3024 c-568 -252 -1146 -576 -1640 -922 -205 -143 -188 -120
-169 -222 19 -108 29 -343 17 -437 -5 -40 -8 -73 -6 -73 2 0 57 40 121 88 511
385 1113 736 1717 1002 77 34 143 65 148 69 4 4 6 136 5 293 l-3 286 -190 -84z"/>
    <path fill="url(#metal-silver)" d="M282 2815 l3 -286 185 -83 c593 -265 1165 -599 1655 -966 l140 -105
0 210 c0 189 6 255 31 361 13 51 -652 479 -1187 765 -235 125 -720 356 -807
383 l-22 7 2 -286z"/>
    <path fill="url(#metal-silver)" d="M3858 3014 c-3 -5 -79 -221 -169 -480 l-163 -472 -366 -6 c-201 -4
-429 -10 -506 -14 l-141 -7 389 -295 c214 -162 395 -302 402 -310 10 -12 -13
-99 -134 -497 -81 -265 -142 -479 -136 -476 6 4 195 134 419 290 l408 284 407
-284 c224 -156 412 -286 418 -290 7 -4 -3 44 -22 106 -18 61 -85 281 -147 487
l-113 375 171 130 c94 71 275 209 402 305 l231 175 -171 7 c-95 5 -323 11
-507 15 l-335 8 -166 479 c-91 263 -168 475 -171 470z m113 -1040 c280 -82
371 -442 164 -649 -207 -207 -567 -116 -649 164 -87 296 189 572 485 485z"/>
  </g>
</svg>
