<svg xmlns="http://www.w3.org/2000/svg" viewBox="0 0 773 634" role="img">
  <defs>
    <linearGradient id="metal-silver" x1="0%" y1="0%" x2="100%" y2="100%">
      <stop offset="0%" stop-color="#ffffff"/>
      <stop offset="22%" stop-color="#e2e8f0"/>
      <stop offset="50%" stop-color="#94a3b8"/>
      <stop offset="78%" stop-color="#cbd5e1"/>
      <stop offset="100%" stop-color="#f1f5f9"/>
    </linearGradient>
    <filter id="insignia-shadow" x="-20%" y="-20%" width="140%" height="140%">
      <feDropShadow dx="0" dy="2" stdDeviation="1.5" flood-color="#000" flood-opacity="0.45"/>
      <feDropShadow dx="0" dy="0.5" stdDeviation="0.25" flood-color="#fff" flood-opacity="0.35"/>
    </filter>
  </defs>
  <g transform="translate(0,634) scale(0.1,-0.1)" filter="url(#insignia-shadow)">
    <path fill="url(#metal-silver)" d="M7150 5781 c-990 -443 -1812 -903 -2485 -1390 -133 -96 -385 -292
-385 -300 0 -3 36 -17 80 -30 93 -28 265 -109 361 -169 36 -23 69 -42 73 -42
4 0 67 43 139 96 629 459 1592 994 2405 1335 l102 43 0 293 c0 161 -1 293 -2
292 -2 0 -131 -58 -288 -128z"/>
    <path fill="url(#metal-silver)" d="M282 5614 l3 -285 145 -63 c852 -368 1689 -834 2349 -1309 142 -102
155 -109 175 -97 149 95 259 150 391 194 44 15 86 29 93 32 16 5 -30 43 -233
196 -529 398 -1160 779 -1905 1151 -369 185 -983 467 -1015 467 -3 0 -4 -129
-3 -286z"/>
    <path fill="url(#metal-silver)" d="M282 4684 l3 -285 155 -68 c648 -284 1301 -647 1827 -1018 106 -74
139 -93 145 -82 5 8 35 60 68 116 33 56 92 142 130 189 38 48 67 91 64 96 -35
56 -753 517 -1154 740 -360 201 -1181 598 -1235 598 -3 0 -4 -128 -3 -286z"/>
    <path fill="url(#metal-silver)" d="M7280 4906 c-765 -335 -1552 -777 -2128 -1195 l-112 -82 58 -72 c71
-87 126 -168 178 -264 21 -40 42 -73 45 -73 3 0 40 24 82 54 522 375 1246 780
1899 1062 l137 59 1 288 c0 158 -3 287 -7 287 -5 0 -73 -29 -153 -64z"/>
    <path fill="url(#metal-silver)" d="M7280 3979 c-360 -162 -781 -379 -1090 -562 -354 -211 -774 -498
-766 -525 25 -90 31 -157 31 -359 l0 -222 30 23 c570 431 1213 810 1817 1072
l138 59 0 293 c0 160 -1 292 -2 291 -2 0 -73 -32 -158 -70z"/>
    <path fill="url(#metal-silver)" d="M282 3755 l3 -286 185 -83 c579 -259 1156 -595 1645 -958 77 -57 145
-107 151 -110 7 -5 7 17 1 70 -11 101 -2 325 18 431 19 99 36 76 -150 207
-382 267 -752 487 -1200 714 -208 106 -576 277 -633 294 l-22 7 2 -286z"/>
    <path fill="url(#metal-silver)" d="M3833 3880 c-16 -47 -92 -263 -168 -481 l-137 -397 -347 -6 c-190 -4
-418 -10 -507 -14 l-160 -7 403 -305 c275 -209 401 -310 398 -320 -2 -8 -68
-226 -146 -483 -77 -258 -139 -470 -137 -471 1 -2 189 127 417 285 l413 288
87 -59 c47 -32 235 -162 416 -289 182 -126 331 -228 332 -227 1 1 -63 217
-142 480 -80 263 -145 482 -145 486 0 4 181 144 401 311 l401 304 -183 7
c-101 5 -330 11 -508 15 l-323 8 -164 470 c-90 259 -165 474 -167 480 -2 5
-17 -29 -34 -75z m138 -966 c108 -32 199 -110 248 -213 38 -82 38 -240 0 -322
-178 -379 -744 -256 -744 161 0 264 243 448 496 374z"/>
    <path fill="url(#metal-silver)" d="M7330 3059 c-333 -145 -725 -355 -993 -533 -343 -226 -551 -401 -977
-821 -439 -432 -549 -523 -752 -623 -414 -204 -1045 -204 -1453 0 -196 99
-332 209 -705 572 -537 524 -850 767 -1370 1066 -183 105 -751 380 -785 380
-3 0 -5 -128 -5 -284 l0 -285 88 -47 c409 -220 755 -438 1072 -676 263 -197
390 -305 934 -792 577 -517 990 -688 1596 -662 551 23 855 171 1430 696 610
557 832 739 1225 1002 226 151 389 247 748 442 l67 37 0 289 c0 160 -1 290 -2
290 -2 -1 -55 -23 -118 -51z"/>
  </g>
</svg>
