<svg xmlns="http://www.w3.org/2000/svg" viewBox="0 0 772 726" role="img">
  <defs>
    <linearGradient id="metal-silver" x1="0%" y1="0%" x2="100%" y2="100%">
      <stop offset="0%" stop-color="#ffffff"/>
      <stop offset="22%" stop-color="#e2e8f0"/>
      <stop offset="50%" stop-color="#94a3b8"/>
      <stop offset="78%" stop-color="#cbd5e1"/>
      <stop offset="100%" stop-color="#f1f5f9"/>
    </linearGradient>
    <filter id="insignia-shadow" x="-20%" y="-20%" width="140%" height="140%">
      <feDropShadow dx="0" dy="2" stdDeviation="1.5" flood-color="#000" flood-opacity="0.45"/>
      <feDropShadow dx="0" dy="0.5" stdDeviation="0.25" flood-color="#fff" flood-opacity="0.35"/>
    </filter>
  </defs>
  <g transform="translate(0,726) scale(0.1,-0.1)" filter="url(#insignia-shadow)">
    <path fill="url(#metal-silver)" d="M7235 6741 c-1067 -467 -2031 -1013 -2735 -1549 -193 -147 -233 -182
-218 -186 160 -48 320 -119 445 -198 40 -25 67 -36 76 -31 7 4 89 63 182 129
673 481 1427 895 2408 1322 l47 21 0 290 c0 160 -1 291 -2 290 -2 0 -93 -39
-203 -88z"/>
    <path fill="url(#metal-silver)" d="M280 6537 l0 -285 98 -42 c916 -398 1716 -842 2400 -1332 l153 -109
62 39 c94 60 231 126 332 161 50 17 96 34 104 36 21 8 5 22 -187 168 -732 555
-1691 1099 -2754 1563 -93 40 -177 75 -188 79 -20 6 -20 2 -20 -278z"/>
    <path fill="url(#metal-silver)" d="M7345 5858 c-730 -322 -1305 -630 -1856 -993 -144 -95 -420 -287
-448 -311 -2 -2 21 -34 51 -71 72 -89 127 -170 178 -265 23 -43 43 -78 45 -78
2 0 52 34 112 76 572 401 1281 792 1966 1083 l47 20 0 291 c0 159 -1 290 -2
289 -2 0 -43 -19 -93 -41z"/>
    <path fill="url(#metal-silver)" d="M280 5606 l0 -283 131 -58 c683 -299 1357 -674 1882 -1048 59 -42
109 -77 112 -77 2 0 24 39 50 88 42 80 111 181 193 280 l32 40 -57 44 c-437
334 -1255 810 -1903 1108 -181 84 -423 190 -432 190 -5 0 -8 -128 -8 -284z"/>
    <path fill="url(#metal-silver)" d="M7275 4899 c-584 -256 -1204 -606 -1733 -978 -118 -83 -123 -87 -117
-116 31 -158 43 -385 26 -517 -5 -38 -4 -55 4 -50 5 3 73 53 150 110 490 364
1108 723 1665 967 85 38 158 71 163 75 4 3 6 135 5 293 l-3 286 -160 -70z"/>
    <path fill="url(#metal-silver)" d="M280 4677 l0 -284 143 -63 c595 -262 1230 -631 1717 -999 63 -48 120
-90 126 -94 7 -4 8 14 1 61 -12 88 -2 357 18 452 8 41 15 76 15 77 0 6 -257
185 -395 276 -331 217 -676 414 -1045 596 -211 105 -553 261 -571 261 -5 0 -9
-123 -9 -283z"/>
    <path fill="url(#metal-silver)" d="M3851 4856 c-7 -16 -81 -230 -167 -475 -85 -245 -158 -449 -162 -453
-4 -3 -212 -9 -462 -13 -250 -4 -475 -10 -500 -14 l-45 -6 397 -300 c258 -195
397 -306 398 -318 0 -14 -226 -777 -275 -925 l-14 -43 92 64 c51 35 236 165
412 287 176 123 327 224 335 224 12 0 266 -173 762 -521 74 -51 76 -52 69 -26
-5 16 -70 233 -146 483 -75 250 -138 458 -139 461 0 4 180 144 401 312 l403
305 -83 6 c-45 3 -273 9 -506 13 l-425 8 -59 170 c-33 94 -108 310 -167 480
-100 288 -109 308 -119 281z m170 -1038 c198 -91 285 -330 190 -522 -120 -244
-437 -299 -628 -108 -175 176 -138 485 74 609 105 61 258 70 364 21z"/>
    <path fill="url(#metal-silver)" d="M7320 3979 c-358 -156 -720 -353 -1020 -554 -349 -234 -526 -384
-980 -830 -416 -410 -526 -500 -726 -595 -417 -200 -1030 -197 -1439 7 -203
101 -332 205 -715 578 -609 593 -1004 883 -1630 1200 -178 89 -494 235 -512
235 -4 0 -8 -128 -8 -284 l0 -283 170 -92 c636 -342 1063 -651 1751 -1268 475
-427 669 -568 933 -679 404 -171 1000 -182 1413 -28 291 109 452 224 983 709
646 590 1071 904 1660 1225 63 35 143 78 178 97 l62 34 0 289 c0 160 -1 290
-2 290 -2 -1 -55 -23 -118 -51z"/>
    <path fill="url(#metal-silver)" d="M7273 3026 c-593 -308 -952 -570 -1642 -1200 -499 -455 -668 -584
-946 -717 -592 -284 -1305 -232 -1868 137 -191 125 -321 229 -657 529 -379
337 -449 398 -616 531 -273 218 -544 405 -814 561 -113 65 -432 233 -443 233
-4 0 -7 -128 -7 -284 l0 -284 116 -62 c379 -200 636 -391 1329 -985 617 -529
855 -706 1186 -879 493 -257 1013 -320 1494 -181 461 133 812 366 1622 1076
638 560 965 802 1326 980 l87 43 0 293 c0 161 -1 293 -2 293 -2 0 -76 -38
-165 -84z"/>
  </g>
</svg>
